<svg id="taostudio-peach-mark" xmlns="http://www.w3.org/2000/svg" viewBox="0 0 64 64">
  <title>桃子AI视觉实验室</title>
  <defs>
    <linearGradient id="peach" x1="9" y1="10" x2="55" y2="58" gradientUnits="userSpaceOnUse">
      <stop offset="0%" stop-color="#ff7569" />
      <stop offset="55%" stop-color="#ff9b48" />
      <stop offset="100%" stop-color="#ea7341" />
    </linearGradient>
    <linearGradient id="leaf" x1="37" y1="20" x2="58" y2="4" gradientUnits="userSpaceOnUse">
      <stop offset="0%" stop-color="#557f5c" />
      <stop offset="100%" stop-color="#9dcb8b" />
    </linearGradient>
  </defs>
  <path d="M31.8 58.1C18.2 58.1 7.6 48.4 7.6 35.1 7.6 22 17.5 10.8 29.4 10.8c4.8 0 8.4 1.7 10.8 4.8 2.3-2.5 5.5-3.8 9.1-3.1 7.3 1.3 11.7 8.5 11.7 17.2 0 15.5-12.4 28.4-29.2 28.4Z" fill="url(#peach)" />
  <path d="M39.1 18.9C42.9 8.5 50 4.3 58.4 5.3c-.7 8.8-7.7 15.7-18.6 15.9-.9 0-1.2-.5-.7-2.3Z" fill="url(#leaf)" />
</svg>
