<?xml version="1.0" encoding="UTF-8"?>
<svg id="taostudio-og-card" xmlns="http://www.w3.org/2000/svg" viewBox="0 0 1200 630" width="1200" height="630">
  <defs>
    <linearGradient id="bg" x1="0" y1="0" x2="1200" y2="630" gradientUnits="userSpaceOnUse">
      <stop offset="0%" stop-color="#fff3e6"/>
      <stop offset="60%" stop-color="#fffaf2"/>
      <stop offset="100%" stop-color="#f4dfcf"/>
    </linearGradient>
    <radialGradient id="warm" cx="180" cy="40" r="840" gradientUnits="userSpaceOnUse">
      <stop offset="0%" stop-color="#ff9a4d" stop-opacity="0.28"/>
      <stop offset="100%" stop-color="#ff9a4d" stop-opacity="0"/>
    </radialGradient>
  </defs>

  <rect width="1200" height="630" fill="url(#bg)"/>
  <rect width="1200" height="630" fill="url(#warm)"/>
  <path d="M760 0c-76 96-80 198-12 305 75 118 65 222-30 313h402c82-112 89-229 16-350C1073 164 1001 75 986 0Z" fill="#fffaf2" opacity="0.68"/>
  <path d="M0 516c154-64 325-61 512 9 115 43 225 54 330 31v74H0Z" fill="#ff9a4d" opacity="0.13"/>

  <image href="/brand/taostudio-peach-logo-512.png" x="82" y="68" width="264" height="264" preserveAspectRatio="xMidYMid meet" />

  <g transform="translate(372,120)">
    <text x="0" y="92"
          font-family="'Microsoft YaHei', 'PingFang SC', system-ui, sans-serif"
          font-size="74" font-weight="760" fill="#23262b">桃子AI视觉实验室</text>
    <line x1="4" y1="136" x2="170" y2="136" stroke="#ff6b5f" stroke-width="3"/>
    <text x="196" y="148"
          font-family="'Instrument Serif', Georgia, serif"
          font-size="34" letter-spacing="6" fill="#23262b">GPT-Image 2 Prompt Lab</text>
    <line x1="548" y1="136" x2="760" y2="136" stroke="#ff6b5f" stroke-width="3"/>
  </g>

  <g transform="translate(82,420)">
    <text x="0" y="0"
          font-family="'Microsoft YaHei', 'PingFang SC', system-ui, sans-serif"
          font-size="32" font-weight="650" fill="#23262b">
      GPT-Image 2 案例与 Prompt 模板库
    </text>
    <text x="0" y="52"
          font-family="'Microsoft YaHei', 'PingFang SC', system-ui, sans-serif"
          font-size="22" fill="#6b5b4d">
      小红书封面 · 商家海报 · 人像写真 · 信息图，一键复制就能出图
    </text>
  </g>

  <g transform="translate(82,536)">
    <g>
      <rect width="174" height="44" rx="22" fill="#23262b"/>
      <circle cx="24" cy="22" r="5" fill="#ff9a4d"/>
      <text x="40" y="29"
            font-family="'Microsoft YaHei', 'PingFang SC', system-ui, sans-serif"
            font-size="14" font-weight="650" fill="#fff3e6">450+ 真实案例</text>
    </g>
    <g transform="translate(194,0)">
      <rect width="184" height="44" rx="22" fill="#fffaf2" stroke="#f0c5aa"/>
      <circle cx="24" cy="22" r="5" fill="#6e8f6e"/>
      <text x="40" y="29"
            font-family="'Microsoft YaHei', 'PingFang SC', system-ui, sans-serif"
            font-size="14" font-weight="650" fill="#23262b">36 套工业模板</text>
    </g>
    <g transform="translate(400,0)">
      <rect width="190" height="44" rx="22" fill="#fffaf2" stroke="#f0c5aa"/>
      <circle cx="24" cy="22" r="5" fill="#ff6b5f"/>
      <text x="40" y="29"
            font-family="'Microsoft YaHei', 'PingFang SC', system-ui, sans-serif"
            font-size="14" font-weight="650" fill="#23262b">中英双语 Prompt</text>
    </g>
  </g>

  <text x="1120" y="592" text-anchor="end"
        font-family="ui-monospace, SFMono-Regular, Menlo, Consolas, monospace"
        font-size="15" fill="#8a7464">taostudioai.com</text>
</svg>
